{
	"asset":{
		"generator":"Khronos glTF Blender I/O v4.4.55",
		"version":"2.0"
	},
	"scene":0,
	"scenes":[
		{
			"name":"Scene",
			"nodes":[
				2
			]
		}
	],
	"nodes":[
		{
			"mesh":0,
			"name":"leaves.001"
		},
		{
			"children":[
				0
			],
			"mesh":1,
			"name":"tree.001",
			"translation":[
				0,
				0,
				11.117192268371582
			]
		},
		{
			"children":[
				1
			],
			"name":"Pine_Tree",
			"rotation":[
				0,
				-1,
				0,
				7.549790126404332e-08
			]
		}
	],
	"materials":[
		{
			"doubleSided":true,
			"name":"Leaves.002"
		},
		{
			"doubleSided":true,
			"name":"Material.001"
		}
	],
	"meshes":[
		{
			"name":"leaves.002",
			"primitives":[
				{
					"attributes":{
						"POSITION":0,
						"NORMAL":1,
						"TEXCOORD_0":2
					},
					"indices":3,
					"material":0
				}
			]
		},
		{
			"name":"Mesh.003",
			"primitives":[
				{
					"attributes":{
						"POSITION":4,
						"NORMAL":5,
						"TEXCOORD_0":6
					},
					"indices":7,
					"material":1
				}
			]
		}
	],
	"accessors":[
		{
			"bufferView":0,
			"componentType":5126,
			"count":468260,
			"max":[
				5.517377853393555,
				18.095012664794922,
				5.342248439788818
			],
			"min":[
				-5.755506992340088,
				-0.012229904532432556,
				-5.53827428817749
			],
			"type":"VEC3"
		},
		{
			"bufferView":1,
			"componentType":5126,
			"count":468260,
			"type":"VEC3"
		},
		{
			"bufferView":2,
			"componentType":5126,
			"count":468260,
			"type":"VEC2"
		},
		{
			"bufferView":3,
			"componentType":5125,
			"count":702390,
			"type":"SCALAR"
		},
		{
			"bufferView":4,
			"componentType":5126,
			"count":70165,
			"max":[
				5.361505508422852,
				17.894508361816406,
				5.207951545715332
			],
			"min":[
				-5.6495256423950195,
				-0.012269865721464157,
				-5.371301174163818
			],
			"type":"VEC3"
		},
		{
			"bufferView":5,
			"componentType":5126,
			"count":70165,
			"type":"VEC3"
		},
		{
			"bufferView":6,
			"componentType":5126,
			"count":70165,
			"type":"VEC2"
		},
		{
			"bufferView":7,
			"componentType":5125,
			"count":236304,
			"type":"SCALAR"
		}
	],
	"bufferViews":[
		{
			"buffer":0,
			"byteLength":5619120,
			"byteOffset":0,
			"target":34962
		},
		{
			"buffer":0,
			"byteLength":5619120,
			"byteOffset":5619120,
			"target":34962
		},
		{
			"buffer":0,
			"byteLength":3746080,
			"byteOffset":11238240,
			"target":34962
		},
		{
			"buffer":0,
			"byteLength":2809560,
			"byteOffset":14984320,
			"target":34963
		},
		{
			"buffer":0,
			"byteLength":841980,
			"byteOffset":17793880,
			"target":34962
		},
		{
			"buffer":0,
			"byteLength":841980,
			"byteOffset":18635860,
			"target":34962
		},
		{
			"buffer":0,
			"byteLength":561320,
			"byteOffset":19477840,
			"target":34962
		},
		{
			"buffer":0,
			"byteLength":945216,
			"byteOffset":20039160,
			"target":34963
		}
	],
	"buffers":[
		{
			"byteLength":20984376,
			"uri":"tree.bin"
		}
	]
}
